<svg version="1.1" id="Layer_1" xmlns="http://www.w3.org/2000/svg" xmlns:xlink="http://www.w3.org/1999/xlink" x="0px" y="0px"
	 width="100%" viewBox="0 0 200 200" enable-background="new 0 0 200 200" xml:space="preserve">
<path fill="#F0BA0E" opacity="1.000000" stroke="none" 
	d="
M1.000001,122.000000 
	C1.000000,108.312439 1.000000,94.624878 1.423016,80.450485 
	C2.227791,79.355049 2.749477,78.792900 2.969405,78.130562 
	C4.917365,72.264053 6.512116,66.259315 8.812316,60.537045 
	C10.828702,55.520821 13.479469,50.737923 16.118736,46.001701 
	C17.765549,43.046463 19.490768,39.920040 21.913158,37.652966 
	C28.646713,31.351131 33.494560,23.288542 42.694496,19.196156 
	C48.758553,16.498697 53.259445,10.753186 60.274616,8.549621 
	C66.324623,6.649224 71.891304,3.230068 78.488510,2.892457 
	C79.023224,2.865093 79.497597,1.658585 80.000000,1.000001 
	C93.687561,1.000000 107.375122,1.000000 121.544167,1.423669 
	C122.635353,2.228600 123.229988,2.913159 123.857079,2.944307 
	C130.272736,3.262990 135.876785,5.856320 141.533432,8.628996 
	C145.897720,10.768206 150.351761,12.325208 154.140518,15.791012 
	C158.373932,19.663586 164.129044,21.897280 168.263336,25.847464 
	C173.577362,30.924826 179.929581,34.908436 182.773422,42.738270 
	C185.041763,48.983601 191.227966,53.284737 193.448425,60.279495 
	C195.367950,66.326317 198.772934,71.892632 199.107895,78.488983 
	C199.135025,79.023300 200.341537,79.497734 201.000000,80.000000 
	C201.000000,93.687561 201.000000,107.375122 200.576324,121.544014 
	C199.769211,122.801369 199.277908,123.543373 199.020645,124.359169 
	C197.749405,128.390244 196.414749,132.407883 195.340607,136.492889 
	C193.997131,141.602234 191.809540,146.010269 188.239899,150.131241 
	C185.095306,153.761520 183.974472,159.111450 180.933487,162.871902 
	C174.865585,170.375458 168.883209,177.903610 159.684387,182.423950 
	C153.202957,185.608948 148.300018,191.722626 141.027313,193.929657 
	C135.667084,195.556320 130.326401,197.253159 125.018906,199.042969 
	C123.917824,199.414276 123.001480,200.333374 122.000000,201.000000 
	C108.312439,201.000000 94.624878,201.000000 80.455994,200.576324 
	C79.533630,199.779007 79.102226,199.092606 78.650101,199.078690 
	C71.896507,198.870621 65.911400,196.402267 60.143848,193.115616 
	C56.881584,191.256592 53.406143,189.771713 50.143402,187.913452 
	C45.502983,185.270538 40.091629,183.259491 36.585983,179.506165 
	C30.533976,173.026550 22.980459,167.938492 19.103935,159.208923 
	C16.448439,153.228973 10.708655,149.035645 8.648293,142.087479 
	C6.767420,135.744614 3.072687,129.937027 2.854322,123.012993 
	C2.843070,122.656189 1.645337,122.336800 1.000001,122.000000 
M66.627861,122.287209 
	C70.128654,124.392342 73.629440,126.497467 77.977257,129.111938 
	C77.977257,123.601196 78.110741,119.326057 77.879349,115.070755 
	C77.824463,114.061539 76.749352,112.776947 75.793114,112.208382 
	C72.672256,110.352776 69.389473,108.769501 65.365616,107.145439 
	C62.439438,109.601082 61.875973,119.185905 64.558281,121.671371 
	C64.870117,121.960335 65.503464,121.902328 66.627861,122.287209 
M53.034512,88.843987 
	C53.776760,89.467789 54.519009,90.091583 55.261261,90.715385 
	C55.815460,89.847260 56.813797,88.996117 56.847759,88.108093 
	C57.003307,84.040787 56.888821,79.963165 57.058022,75.173401 
	C59.996811,73.537880 63.000088,72.004036 65.835609,70.205688 
	C66.701492,69.656525 67.769081,68.235123 67.600220,67.463562 
	C67.050812,64.953201 56.460236,59.783539 54.093212,61.107677 
	C50.362644,63.194599 46.637329,65.592003 43.678230,68.611130 
	C42.466812,69.847122 43.228962,73.044464 43.147713,75.351471 
	C43.094994,76.848473 42.851585,78.425270 43.221687,79.826866 
	C43.609364,81.294998 44.302834,83.036385 45.440117,83.878006 
	C47.723621,85.567871 50.400043,86.726784 53.034512,88.843987 
M66.025887,95.722511 
	C70.092415,98.209572 74.050522,100.900406 78.251106,103.135536 
	C84.422913,106.419556 89.547295,109.981346 87.802269,118.341980 
	C87.169441,121.373924 87.904533,124.665230 87.651123,127.808823 
	C87.299622,132.169327 87.743858,135.784698 92.766541,137.274979 
	C93.982689,137.635818 94.910797,139.027710 95.926323,139.992859 
	C98.640587,142.572495 101.624565,142.444580 104.532097,140.584106 
	C106.578804,139.274460 108.539520,137.723495 110.208900,135.966904 
	C111.419685,134.692871 112.788826,132.943909 112.876717,131.340363 
	C113.195213,125.529335 113.181641,119.682716 112.934372,113.864784 
	C112.792976,110.538162 113.687141,108.511597 116.817329,106.884445 
	C122.513313,103.923523 127.935280,100.430923 133.429306,97.090622 
	C134.313278,96.553185 135.421677,95.784019 135.676071,94.904877 
	C138.202820,86.173019 135.495148,79.927635 127.327873,76.010933 
	C125.303162,75.039963 122.385338,73.852097 120.712341,74.608704 
	C115.238770,77.084137 110.132927,80.381096 104.919930,83.420898 
	C102.132225,85.046455 99.463219,85.460976 96.504425,83.688110 
	C91.456123,80.663239 86.320053,77.780052 81.151894,74.963905 
	C80.060562,74.369232 78.274506,73.657425 77.487701,74.130104 
	C73.474167,76.541237 69.683479,79.323318 65.055725,82.098061 
	C61.689751,85.627235 62.124771,92.909355 66.025887,95.722511 
M145.051193,107.684532 
	C145.050217,113.183762 145.244736,118.694580 144.920090,124.174637 
	C144.831436,125.671021 143.503891,127.559593 142.189743,128.430679 
	C138.214081,131.065948 133.959473,133.279022 129.825378,135.676971 
	C122.097221,140.159668 120.354378,145.152039 123.547333,154.221664 
	C124.419983,153.865555 125.339355,153.613190 126.133621,153.147461 
	C135.102646,147.888199 143.938385,142.387405 153.057602,137.404770 
	C157.352371,135.058182 158.233368,131.831375 158.129807,127.424408 
	C157.918472,118.430618 158.118149,109.427834 158.022690,100.430084 
	C158.003250,98.597244 157.429825,96.770271 156.970627,94.128593 
	C154.131302,96.026001 152.294952,97.858818 150.092087,98.595253 
	C145.905777,99.994759 144.431076,102.609390 145.051193,107.684532 
M56.580521,117.472427 
	C56.580566,113.979446 56.585178,110.486465 56.579636,106.993492 
	C56.570251,101.078247 49.763481,95.157654 43.125954,95.592522 
	C43.125954,107.529236 43.057274,119.491074 43.217396,131.449844 
	C43.236309,132.862122 44.177647,134.645172 45.269939,135.581253 
	C47.636734,137.609558 50.273117,139.384583 52.986469,140.935654 
	C61.013527,145.524323 69.131523,149.953903 77.859077,154.804245 
	C77.859077,149.608154 77.902351,145.027039 77.812927,140.448486 
	C77.799339,139.752914 77.352997,138.769714 76.795479,138.429016 
	C73.228058,136.249054 69.730148,133.849960 65.916733,132.198807 
	C56.646378,128.184906 56.581985,128.333618 56.580521,117.472427 
M116.686592,58.827175 
	C123.716980,62.006344 132.076126,59.481495 133.783829,53.622700 
	C130.961685,52.058983 128.140549,50.469166 125.294777,48.924728 
	C119.936752,46.016857 113.906700,43.914185 109.348190,40.064941 
	C102.012047,33.870235 99.891273,33.093594 92.772820,38.468235 
	C91.880432,39.142010 91.367035,40.387920 90.424263,40.913712 
	C82.625992,45.262917 74.767899,49.504852 66.922874,53.782001 
	C69.794014,58.750038 77.437943,62.504803 81.037842,60.702610 
	C85.202774,58.617550 89.036346,55.842297 93.267525,53.927353 
	C96.325066,52.543579 100.154503,50.738785 103.002548,51.501350 
	C107.642021,52.743572 111.761070,55.929451 116.686592,58.827175 
M146.217072,60.624973 
	C140.521942,61.334358 136.191681,64.145569 132.490738,69.581657 
	C143.653000,71.501175 147.364517,78.189491 144.315414,89.855011 
	C148.790421,87.587982 151.889908,86.285851 154.706253,84.529633 
	C159.186615,81.735756 159.731796,70.271523 155.582275,67.013412 
	C152.763718,64.800323 149.720291,62.873627 146.217072,60.624973 
M106.896103,149.224976 
	C102.740555,152.901001 98.734001,153.432083 94.374901,149.280350 
	C92.921783,147.896378 90.536087,147.491547 88.394203,146.559692 
	C86.376305,157.859772 87.827797,161.174118 97.415001,166.928299 
	C104.001022,170.881165 106.868317,164.032791 110.727844,161.427917 
	C116.026833,157.851517 111.837006,151.950897 113.304146,145.941986 
	C110.569771,147.396240 109.093124,148.181580 106.896103,149.224976 
M135.909302,115.403275 
	C135.909302,112.694885 135.909302,109.986496 135.909302,107.119492 
	C124.994232,109.898499 121.163818,115.114761 122.492584,124.974579 
	C122.642624,126.087936 124.344322,127.851715 125.318253,127.846237 
	C129.610458,127.822136 135.885468,120.706345 135.909302,115.403275 
M107.236702,71.845108 
	C108.691299,70.924881 110.145897,70.004654 111.579605,69.097649 
	C107.152481,58.916481 97.671043,58.592716 89.077385,68.218536 
	C97.301399,75.288300 100.535347,76.010223 107.236702,71.845108 
z"/>
<path fill="#000000" opacity="1.000000" stroke="none" 
	d="
M122.468658,201.000000 
	C123.001480,200.333374 123.917824,199.414276 125.018906,199.042969 
	C130.326401,197.253159 135.667084,195.556320 141.027313,193.929657 
	C148.300018,191.722626 153.202957,185.608948 159.684387,182.423950 
	C168.883209,177.903610 174.865585,170.375458 180.933487,162.871902 
	C183.974472,159.111450 185.095306,153.761520 188.239899,150.131241 
	C191.809540,146.010269 193.997131,141.602234 195.340607,136.492889 
	C196.414749,132.407883 197.749405,128.390244 199.020645,124.359169 
	C199.277908,123.543373 199.769211,122.801369 200.576324,122.012672 
	C201.000000,148.260223 201.000000,174.520432 201.000000,201.000000 
	C174.979523,201.000000 148.958420,201.000000 122.468658,201.000000 
z"/>
<path fill="#000000" opacity="1.000000" stroke="none" 
	d="
M201.000000,79.531342 
	C200.341537,79.497734 199.135025,79.023300 199.107895,78.488983 
	C198.772934,71.892632 195.367950,66.326317 193.448425,60.279495 
	C191.227966,53.284737 185.041763,48.983601 182.773422,42.738270 
	C179.929581,34.908436 173.577362,30.924826 168.263336,25.847464 
	C164.129044,21.897280 158.373932,19.663586 154.140518,15.791012 
	C150.351761,12.325208 145.897720,10.768206 141.533432,8.628996 
	C135.876785,5.856320 130.272736,3.262990 123.857079,2.944307 
	C123.229988,2.913159 122.635353,2.228600 122.012825,1.423669 
	C148.260208,1.000000 174.520432,1.000000 201.000000,1.000000 
	C201.000000,27.020483 201.000000,53.041584 201.000000,79.531342 
z"/>
<path fill="#000000" opacity="1.000000" stroke="none" 
	d="
M1.000001,122.468658 
	C1.645337,122.336800 2.843070,122.656189 2.854322,123.012993 
	C3.072687,129.937027 6.767420,135.744614 8.648293,142.087479 
	C10.708655,149.035645 16.448439,153.228973 19.103935,159.208923 
	C22.980459,167.938492 30.533976,173.026550 36.585983,179.506165 
	C40.091629,183.259491 45.502983,185.270538 50.143402,187.913452 
	C53.406143,189.771713 56.881584,191.256592 60.143848,193.115616 
	C65.911400,196.402267 71.896507,198.870621 78.650101,199.078690 
	C79.102226,199.092606 79.533630,199.779007 79.987335,200.576324 
	C53.739780,201.000000 27.479559,201.000000 1.000000,201.000000 
	C1.000000,174.979523 1.000000,148.958420 1.000001,122.468658 
z"/>
<path fill="#000000" opacity="1.000000" stroke="none" 
	d="
M79.531342,1.000001 
	C79.497597,1.658585 79.023224,2.865093 78.488510,2.892457 
	C71.891304,3.230068 66.324623,6.649224 60.274616,8.549621 
	C53.259445,10.753186 48.758553,16.498697 42.694496,19.196156 
	C33.494560,23.288542 28.646713,31.351131 21.913158,37.652966 
	C19.490768,39.920040 17.765549,43.046463 16.118736,46.001701 
	C13.479469,50.737923 10.828702,55.520821 8.812316,60.537045 
	C6.512116,66.259315 4.917365,72.264053 2.969405,78.130562 
	C2.749477,78.792900 2.227791,79.355049 1.423016,79.981827 
	C1.000000,53.739780 1.000000,27.479559 1.000000,1.000000 
	C27.020483,1.000000 53.041584,1.000000 79.531342,1.000001 
z"/>
<path fill="#FFFEFB" opacity="1.000000" stroke="none" 
	d="
M65.814835,81.975616 
	C69.683479,79.323318 73.474167,76.541237 77.487701,74.130104 
	C78.274506,73.657425 80.060562,74.369232 81.151894,74.963905 
	C86.320053,77.780052 91.456123,80.663239 96.504425,83.688110 
	C99.463219,85.460976 102.132225,85.046455 104.919930,83.420898 
	C110.132927,80.381096 115.238770,77.084137 120.712341,74.608704 
	C122.385338,73.852097 125.303162,75.039963 127.327873,76.010933 
	C135.495148,79.927635 138.202820,86.173019 135.676071,94.904877 
	C135.421677,95.784019 134.313278,96.553185 133.429306,97.090622 
	C127.935280,100.430923 122.513313,103.923523 116.817329,106.884445 
	C113.687141,108.511597 112.792976,110.538162 112.934372,113.864784 
	C113.181641,119.682716 113.195213,125.529335 112.876717,131.340363 
	C112.788826,132.943909 111.419685,134.692871 110.208900,135.966904 
	C108.539520,137.723495 106.578804,139.274460 104.532097,140.584106 
	C101.624565,142.444580 98.640587,142.572495 95.926323,139.992859 
	C94.910797,139.027710 93.982689,137.635818 92.766541,137.274979 
	C87.743858,135.784698 87.299622,132.169327 87.651123,127.808823 
	C87.904533,124.665230 87.169441,121.373924 87.802269,118.341980 
	C89.547295,109.981346 84.422913,106.419556 78.251106,103.135536 
	C74.050522,100.900406 70.092415,98.209572 65.987701,94.911270 
	C65.904617,90.058556 65.859726,86.017082 65.814835,81.975616 
z"/>
<path fill="#FEFCF3" opacity="1.000000" stroke="none" 
	d="
M145.051208,107.217636 
	C144.431076,102.609390 145.905777,99.994759 150.092087,98.595253 
	C152.294952,97.858818 154.131302,96.026001 156.970627,94.128593 
	C157.429825,96.770271 158.003250,98.597244 158.022690,100.430084 
	C158.118149,109.427834 157.918472,118.430618 158.129807,127.424408 
	C158.233368,131.831375 157.352371,135.058182 153.057602,137.404770 
	C143.938385,142.387405 135.102646,147.888199 126.133621,153.147461 
	C125.339355,153.613190 124.419983,153.865555 123.547333,154.221664 
	C120.354378,145.152039 122.097221,140.159668 129.825378,135.676971 
	C133.959473,133.279022 138.214081,131.065948 142.189743,128.430679 
	C143.503891,127.559593 144.831436,125.671021 144.920090,124.174637 
	C145.244736,118.694580 145.050217,113.183762 145.051208,107.217636 
z"/>
<path fill="#FEFAEC" opacity="1.000000" stroke="none" 
	d="
M56.580387,117.963348 
	C56.581985,128.333618 56.646378,128.184906 65.916733,132.198807 
	C69.730148,133.849960 73.228058,136.249054 76.795479,138.429016 
	C77.352997,138.769714 77.799339,139.752914 77.812927,140.448486 
	C77.902351,145.027039 77.859077,149.608154 77.859077,154.804245 
	C69.131523,149.953903 61.013527,145.524323 52.986469,140.935654 
	C50.273117,139.384583 47.636734,137.609558 45.269939,135.581253 
	C44.177647,134.645172 43.236309,132.862122 43.217396,131.449844 
	C43.057274,119.491074 43.125954,107.529236 43.125954,95.592522 
	C49.763481,95.157654 56.570251,101.078247 56.579636,106.993492 
	C56.585178,110.486465 56.580566,113.979446 56.580387,117.963348 
z"/>
<path fill="#FEFBF2" opacity="1.000000" stroke="none" 
	d="
M116.393166,58.561150 
	C111.761070,55.929451 107.642021,52.743572 103.002548,51.501350 
	C100.154503,50.738785 96.325066,52.543579 93.267525,53.927353 
	C89.036346,55.842297 85.202774,58.617550 81.037842,60.702610 
	C77.437943,62.504803 69.794014,58.750038 66.922874,53.782001 
	C74.767899,49.504852 82.625992,45.262917 90.424263,40.913712 
	C91.367035,40.387920 91.880432,39.142010 92.772820,38.468235 
	C99.891273,33.093594 102.012047,33.870235 109.348190,40.064941 
	C113.906700,43.914185 119.936752,46.016857 125.294777,48.924728 
	C128.140549,50.469166 130.961685,52.058983 133.783829,53.622700 
	C132.076126,59.481495 123.716980,62.006344 116.393166,58.561150 
z"/>
<path fill="#FEFBF2" opacity="1.000000" stroke="none" 
	d="
M146.497253,60.721912 
	C149.720291,62.873627 152.763718,64.800323 155.582275,67.013412 
	C159.731796,70.271523 159.186615,81.735756 154.706253,84.529633 
	C151.889908,86.285851 148.790421,87.587982 144.315414,89.855011 
	C147.364517,78.189491 143.653000,71.501175 132.490738,69.581657 
	C136.191681,64.145569 140.521942,61.334358 146.497253,60.721912 
z"/>
<path fill="#FEFBF2" opacity="1.000000" stroke="none" 
	d="
M52.914303,88.104828 
	C50.400043,86.726784 47.723621,85.567871 45.440117,83.878006 
	C44.302834,83.036385 43.609364,81.294998 43.221687,79.826866 
	C42.851585,78.425270 43.094994,76.848473 43.147713,75.351471 
	C43.228962,73.044464 42.466812,69.847122 43.678230,68.611130 
	C46.637329,65.592003 50.362644,63.194599 54.093212,61.107677 
	C56.460236,59.783539 67.050812,64.953201 67.600220,67.463562 
	C67.769081,68.235123 66.701492,69.656525 65.835609,70.205688 
	C63.000088,72.004036 59.996811,73.537880 56.586441,75.658813 
	C55.764973,78.761528 55.591541,81.419830 54.996780,83.980255 
	C54.658230,85.437721 53.631268,86.735268 52.914303,88.104828 
z"/>
<path fill="#FEFCF5" opacity="1.000000" stroke="none" 
	d="
M107.256287,149.095947 
	C109.093124,148.181580 110.569771,147.396240 113.304146,145.941986 
	C111.837006,151.950897 116.026833,157.851517 110.727844,161.427917 
	C106.868317,164.032791 104.001022,170.881165 97.415001,166.928299 
	C87.827797,161.174118 86.376305,157.859772 88.394203,146.559692 
	C90.536087,147.491547 92.921783,147.896378 94.374901,149.280350 
	C98.734001,153.432083 102.740555,152.901001 107.256287,149.095947 
z"/>
<path fill="#FDF6E1" opacity="1.000000" stroke="none" 
	d="
M135.909271,115.859749 
	C135.885468,120.706345 129.610458,127.822136 125.318253,127.846237 
	C124.344322,127.851715 122.642624,126.087936 122.492584,124.974579 
	C121.163818,115.114761 124.994232,109.898499 135.909302,107.119492 
	C135.909302,109.986496 135.909302,112.694885 135.909271,115.859749 
z"/>
<path fill="#FEFAEE" opacity="1.000000" stroke="none" 
	d="
M106.907852,71.985291 
	C100.535347,76.010223 97.301399,75.288300 89.077385,68.218536 
	C97.671043,58.592716 107.152481,58.916481 111.579605,69.097649 
	C110.145897,70.004654 108.691299,70.924881 106.907852,71.985291 
z"/>
<path fill="#FEFCF5" opacity="1.000000" stroke="none" 
	d="
M66.168976,107.081459 
	C69.389473,108.769501 72.672256,110.352776 75.793114,112.208382 
	C76.749352,112.776947 77.824463,114.061539 77.879349,115.070755 
	C78.110741,119.326057 77.977257,123.601196 77.977257,129.111938 
	C73.629440,126.497467 70.128654,124.392342 66.303345,121.680084 
	C66.042221,116.409134 66.105598,111.745293 66.168976,107.081459 
z"/>
<path fill="#F2C22A" opacity="1.000000" stroke="none" 
	d="
M65.767296,107.113449 
	C66.105598,111.745293 66.042221,116.409134 65.983292,121.539078 
	C65.503464,121.902328 64.870117,121.960335 64.558281,121.671371 
	C61.875973,119.185905 62.439438,109.601082 65.767296,107.113449 
z"/>
<path fill="#F2C126" opacity="1.000000" stroke="none" 
	d="
M65.435280,82.036835 
	C65.859726,86.017082 65.904617,90.058556 65.888680,94.561584 
	C62.124771,92.909355 61.689751,85.627235 65.435280,82.036835 
z"/>
<path fill="#F7DA7D" opacity="1.000000" stroke="none" 
	d="
M52.974407,88.474411 
	C53.631268,86.735268 54.658230,85.437721 54.996780,83.980255 
	C55.591541,81.419830 55.764973,78.761528 56.493080,76.016731 
	C56.888821,79.963165 57.003307,84.040787 56.847759,88.108093 
	C56.813797,88.996117 55.815460,89.847260 55.261261,90.715385 
	C54.519009,90.091583 53.776760,89.467789 52.974407,88.474411 
z"/>
</svg>