<svg xmlns="http://www.w3.org/2000/svg" xmlns:xlink="http://www.w3.org/1999/xlink" width="51.927" height="48.896" viewBox="0 0 51.927 48.896">
  <!-- <defs>
    <linearGradient id="linear-gradient" y1="0.5" x2="1" y2="0.5" gradientUnits="objectBoundingBox">
      <stop offset="0" stop-color="#62f6be"/>
      <stop offset="1" stop-color="#00abe6"/>
    </linearGradient>
  </defs> -->
  <g id="Group_441" data-name="Group 441" transform="translate(0)">
    <g id="Group_444" data-name="Group 444">
      <path id="Path_720" data-name="Path 720" d="M1423,97.747a4.656,4.656,0,0,0-4.656,4.656V139.2a4.656,4.656,0,0,0,4.656,4.657h33.047a5.111,5.111,0,0,1,3.615,1.5l1.294,1.294h9.314l-22.551-22.551h-16.2v6.587h11.357a5.112,5.112,0,0,1,3.615,1.5l5.089,5.089H1425.8a.87.87,0,0,1-.87-.87V105.2a.869.869,0,0,1,.87-.869h27.637a.87.87,0,0,1,.87.869v16.882a5.114,5.114,0,0,0,1.5,3.615l5.089,5.089V102.4a4.656,4.656,0,0,0-4.656-4.656Z" transform="translate(-1418.345 -97.747)" fill="#fff"/>
    </g>
    <rect id="Rectangle_583" data-name="Rectangle 583" width="16.574" height="6.587" transform="translate(13.173 13.173)" fill="#fff"/>
  </g>
</svg>