<svg xmlns="http://www.w3.org/2000/svg" width="90.408" height="90.44" viewBox="0 0 90.408 90.44">
  <g id="tick-04" transform="translate(1.002 1)">
    <path id="Path_1018" data-name="Path 1018" d="M44.889,0A3.478,3.478,0,0,1,47.5,3.168a3.175,3.175,0,0,1-2.844,3.419c-1.884.216-3.794.216-5.671.474a36.119,36.119,0,0,0-18.617,8.186A36,36,0,0,0,7.922,34.678C4.767,47.6,7.49,59.2,16.314,69.226A35.627,35.627,0,0,0,38.251,81.249a36.544,36.544,0,0,0,30.562-8.777A35.777,35.777,0,0,0,80.464,53.724a79.244,79.244,0,0,0,1.224-8.251c.071-.51.032-1.036.1-1.549a3.262,3.262,0,0,1,2.846-3,3.3,3.3,0,0,1,3.588,2.221c.05.13.123.249.186.374V46.8c-.054.3-.115.61-.16.917-.277,1.9-.433,3.832-.841,5.705A42.947,42.947,0,0,1,71,79.29a42.892,42.892,0,0,1-36.082,8.1A42.638,42.638,0,0,1,9.179,71.093,42.966,42.966,0,0,1,.227,39.8,42.739,42.739,0,0,1,11.011,15.081,43.365,43.365,0,0,1,36.581.688c1.663-.3,3.35-.461,5.026-.688Z" transform="translate(0)" fill="#09b2e2" stroke="#fff" stroke-width="2"/>
    <path id="Path_1019" data-name="Path 1019" d="M117.4,92.478a7.727,7.727,0,0,1,.686-.978q19.372-19.335,38.746-38.666a3.659,3.659,0,0,1,3.363-1.341,3.3,3.3,0,0,1,2.022,5.336,9.378,9.378,0,0,1-.709.757L120.067,98.925c-2.035,2.029-3.852,1.983-5.818-.151q-8.015-8.7-16.024-17.4c-1.568-1.709-1.44-3.964.264-5.191a3.268,3.268,0,0,1,4.07.145,8.844,8.844,0,0,1,.794.792q6.7,7.271,13.394,14.545C116.921,91.845,117.068,92.054,117.4,92.478Z" transform="translate(-76.12 -40.314)" fill="#09b2e2" stroke="#fff" stroke-width="2"/>
  </g>
</svg>
